<?xml version="1.0" encoding="UTF-8" standalone="no"?>
<svg
   xmlns:dc="http://purl.org/dc/elements/1.1/"
   xmlns:cc="http://creativecommons.org/ns#"
   xmlns:rdf="http://www.w3.org/1999/02/22-rdf-syntax-ns#"
   xmlns:svg="http://www.w3.org/2000/svg"
   xmlns="http://www.w3.org/2000/svg"
   xmlns:sodipodi="http://sodipodi.sourceforge.net/DTD/sodipodi-0.dtd"
   xmlns:inkscape="http://www.inkscape.org/namespaces/inkscape"
   sodipodi:docname="desenhandosvg.svg"
   inkscape:export-ydpi="96"
   inkscape:export-xdpi="96"
   inkscape:export-filename="C:\Users\Usuario\bitmap.png"
   inkscape:version="1.0 (4035a4fb49, 2020-05-01)"
   id="svg61"
   version="1.1"
   viewBox="0 0 210 297"
   height="297mm"
   width="210mm">
  <defs
     id="defs55" />
  <sodipodi:namedview
     inkscape:window-maximized="0"
     inkscape:window-y="0"
     inkscape:window-x="0"
     inkscape:window-height="728"
     inkscape:window-width="1344"
     showgrid="false"
     inkscape:document-rotation="0"
     inkscape:current-layer="layer1"
     inkscape:document-units="mm"
     inkscape:cy="405.12777"
     inkscape:cx="-326.64404"
     inkscape:zoom="0.35"
     inkscape:pageshadow="2"
     inkscape:pageopacity="0.0"
     borderopacity="1.0"
     bordercolor="#666666"
     pagecolor="#ffffff"
     id="base" />
  <metadata
     id="metadata58">
    <rdf:RDF>
      <cc:Work
         rdf:about="">
        <dc:format>image/svg+xml</dc:format>
        <dc:type
           rdf:resource="http://purl.org/dc/dcmitype/StillImage" />
        <dc:title></dc:title>
      </cc:Work>
    </rdf:RDF>
  </metadata>
  <g
     id="layer1"
     inkscape:groupmode="layer"
     inkscape:label="Layer 1">
    <rect
       ry="0"
       y="-1.5119048"
       x="-2.2678571"
       height="175.38094"
       width="215.44643"
       id="rect63"
       style="fill:#000080;stroke-width:0.264583" />
    <rect
       ry="0.37797746"
       y="61.988091"
       x="162.52975"
       height="111.88096"
       width="26.458328"
       id="rect65"
       style="fill:#784421;stroke-width:0.264583" />
    <rect
       ry="0.37797847"
       y="65.767853"
       x="188.98807"
       height="108.10117"
       width="24.190491"
       id="rect69"
       style="fill:#502d16;stroke-width:0.264583" />
    <path
       inkscape:transform-center-x="1.3487743e-06"
       transform="scale(-1)"
       inkscape:transform-center-y="-4.2455164"
       d="m -188.9859,-65.900875 a 13.617332,9.0871725 0 0 1 -13.31781,9.052867 13.617332,9.0871725 0 0 1 -13.9014,-8.653352 l 13.60196,-0.431623 z"
       sodipodi:arc-type="slice"
       sodipodi:end="3.0940767"
       sodipodi:start="0.0035334365"
       sodipodi:ry="9.0871725"
       sodipodi:rx="13.617332"
       sodipodi:cy="-65.932983"
       sodipodi:cx="-202.60315"
       sodipodi:type="arc"
       id="path82"
       style="fill:#ffffff;stroke-width:0.029164" />
    <rect
       rx="0"
       ry="0"
       y="70.826424"
       x="165.43983"
       height="3.8754082"
       width="3.8754082"
       id="rect145"
       style="fill:#ffff00;stroke-width:0.264583" />
    <rect
       style="fill:#ffff00;stroke-width:0.264583"
       id="rect145-6"
       width="3.8754082"
       height="3.8754082"
       x="180.87463"
       y="71.026878"
       ry="0"
       rx="0" />
    <rect
       style="fill:#ffff00;stroke-width:0.264583"
       id="rect145-8"
       width="3.8754082"
       height="3.8754082"
       x="192.76816"
       y="73.031395"
       ry="0"
       rx="0" />
    <rect
       style="fill:#ffff00;stroke-width:0.264583"
       id="rect145-41"
       width="3.8754082"
       height="3.8754082"
       x="206.66617"
       y="72.897766"
       ry="0"
       rx="0" />
    <rect
       style="fill:#ffff00;stroke-width:0.264583"
       id="rect145-62"
       width="3.8754082"
       height="3.8754082"
       x="207.46797"
       y="83.187637"
       ry="0"
       rx="0" />
    <rect
       style="fill:#ffff00;stroke-width:0.264583"
       id="rect145-88"
       width="3.8754082"
       height="3.8754082"
       x="192.50087"
       y="103.23286"
       ry="0"
       rx="0" />
    <rect
       transform="scale(1,-1)"
       style="fill:#ffff00;stroke-width:0.264583"
       id="rect145-7"
       width="3.8754082"
       height="3.8754082"
       x="207.06706"
       y="-116.99725"
       ry="0"
       rx="0" />
    <rect
       style="fill:#ffff00;stroke-width:0.264583"
       id="rect145-3"
       width="3.8754082"
       height="3.8754082"
       x="164.97212"
       y="102.56468"
       ry="0"
       rx="0" />
    <rect
       style="fill:#ffff00;stroke-width:0.264583"
       id="rect145-81"
       width="3.8754082"
       height="3.8754082"
       x="180.74101"
       y="92.942978"
       ry="0"
       rx="0" />
    <rect
       style="fill:#ffff00;stroke-width:0.264583"
       id="rect145-36"
       width="3.8754082"
       height="3.8754082"
       x="165.90756"
       y="128.22255"
       ry="0"
       rx="0" />
    <rect
       style="fill:#ffff00;stroke-width:0.264583"
       id="rect145-76"
       width="3.8754082"
       height="3.8754082"
       x="181.40919"
       y="137.71063"
       ry="0"
       rx="0" />
    <rect
       style="fill:#ffff00;stroke-width:0.264583"
       id="rect145-32"
       width="3.8754082"
       height="3.8754082"
       x="191.01257"
       y="131.68199"
       ry="0"
       rx="0" />
    <rect
       y="173.86903"
       x="-2.2678571"
       height="7.9375153"
       width="215.06845"
       id="rect273"
       style="fill:#4d4d4d;stroke-width:0.264583" />
    <rect
       y="147.78868"
       x="28.348215"
       height="26.080357"
       width="32.127975"
       id="rect275"
       style="fill:#502d16;stroke-width:0.264583" />
    <path
       inkscape:transform-center-y="-1.3024232"
       inkscape:transform-center-x="0.48405726"
       d="m -97.139882,124.35417 -1.412691,10.54351 8.310269,6.64083 -8.424602,-6.49518 -9.906264,3.87649 9.837288,-4.04833 z"
       inkscape:randomized="0"
       inkscape:rounded="0"
       inkscape:flatsided="false"
       sodipodi:arg2="-0.38170172"
       sodipodi:arg1="-1.4288993"
       sodipodi:r2="0.10690781"
       sodipodi:r1="10.690781"
       sodipodi:cy="134.9375"
       sodipodi:cx="-98.651787"
       sodipodi:sides="3"
       id="path277"
       style="fill:#502d16;stroke-width:0.264583"
       sodipodi:type="star" />
    <path
       transform="matrix(1,0,0,0.28288505,0,106.42107)"
       inkscape:transform-center-y="-1.97809"
       inkscape:transform-center-x="-0.7478385"
       d="m 70.303567,147.03274 -26.056695,0.93034 -26.06961,0.43861 12.222655,-23.03093 12.654955,-22.79625 13.83404,22.10059 z"
       inkscape:randomized="0"
       inkscape:rounded="0"
       inkscape:flatsided="false"
       sodipodi:arg2="1.5445402"
       sodipodi:arg1="0.49734271"
       sodipodi:r2="15.298701"
       sodipodi:r1="30.105513"
       sodipodi:cy="132.66965"
       sodipodi:cx="43.845234"
       sodipodi:sides="3"
       id="path279"
       style="fill:#aa4400;stroke-width:0.264583"
       sodipodi:type="star" />
    <rect
       rx="0"
       ry="0"
       y="157.94623"
       x="52.868843"
       height="3.8754082"
       width="3.8754082"
       id="rect145-2-2"
       style="fill:#ffff00;stroke-width:0.264583" />
    <rect
       rx="0"
       ry="0"
       y="162.81207"
       x="31.372025"
       height="11.056962"
       width="5.4829583"
       id="rect145-2-3"
       style="fill:#ffff00;stroke-width:0.754514" />
    <rect
       ry="1.5119047"
       y="181.80655"
       x="-2.2678571"
       height="116.79465"
       width="215.06845"
       id="rect302"
       style="fill:#000000;stroke-width:0.264583" />
    <path
       sodipodi:type="star"
       style="fill:#ffffff;stroke-width:0.264583"
       id="path306-5"
       sodipodi:sides="8"
       sodipodi:cx="12.599882"
       sodipodi:cy="12.864522"
       sodipodi:r1="4.6753063"
       sodipodi:r2="2.0557683"
       sodipodi:arg1="-2.8966144"
       sodipodi:arg2="-2.5039153"
       inkscape:flatsided="false"
       inkscape:rounded="0"
       inkscape:randomized="0"
       d="m 8.0641683,11.730595 2.8839437,-0.08993 -0.753657,-2.7851791 2.102851,1.9756621 1.436503,-2.5023348 0.08993,2.8839438 2.785179,-0.753657 -1.975662,2.10285 2.502335,1.436503 -2.883944,0.08994 0.753657,2.785179 -2.10285,-1.975662 -1.436503,2.502335 -0.08994,-2.883944 -2.785179,0.753657 1.975662,-2.102851 z"
       inkscape:transform-center-x="-1.0761905e-06" />
    <path
       transform="translate(130.59295,-18.07172)"
       sodipodi:type="star"
       style="fill:#ffffff;stroke-width:0.264583"
       id="path323-8"
       sodipodi:sides="10"
       sodipodi:cx="-79.752975"
       sodipodi:cy="42.333336"
       sodipodi:r1="2.6726947"
       sodipodi:r2="3.9057279"
       sodipodi:arg1="-0.78539828"
       sodipodi:arg2="3.0577322"
       inkscape:flatsided="false"
       inkscape:rounded="0.01"
       inkscape:randomized="-0.043"
       d="m -77.807349,40.41442 c -0.02789,-0.05613 -5.785826,2.088633 -5.758585,2.144682 0.02892,0.0595 6.298325,-0.419622 6.310411,-0.48431 0.01138,-0.06093 -5.828271,-1.813463 -5.839304,-1.753182 -0.01171,0.064 5.645352,3.208745 5.69711,3.169471 0.04875,-0.03699 -3.864663,-4.816741 -3.908301,-4.774527 -0.04633,0.04482 2.662489,6.045526 2.728241,6.041998 0.06193,-0.0033 -0.369511,-6.29253 -0.430152,-6.280539 -0.06438,0.01273 -1.332309,6.409195 -1.275093,6.442887 0.05389,0.03173 3.618583,-5.040756 3.563996,-5.068521 -0.05795,-0.02948 -4.876343,4.186146 -4.848083,4.244029 0.02662,0.05452 5.786454,-2.090382 5.758584,-2.144682 -0.02959,-0.05765 -6.627566,0.757804 -6.646303,0.820202 -0.01765,0.05877 6.160987,1.523572 6.174862,1.462656 0.01473,-0.06467 -5.667614,-3.035647 -5.715218,-2.988614 -0.04484,0.0443 3.547329,4.600876 3.59051,4.556479 0.04584,-0.04714 -2.34497,-5.796037 -2.410104,-5.794933 -0.06135,0.001 0.05042,6.071855 0.112361,6.06249 0.06576,-0.0099 1.31476,-6.269312 1.25698,-6.299221 -0.05442,-0.02817 -3.28447,5.11677 -3.228092,5.142904 0.05985,0.02775 4.89579,-4.439675 4.86618,-4.499269 z" />
    <path
       inkscape:transform-center-y="0.015655437"
       inkscape:transform-center-x="-0.038832527"
       d="m 19.245824,33.694332 c -0.0046,-0.0046 0.12299,-0.731953 0.119855,-0.737612 -0.0031,-0.0057 -0.532113,-0.196644 -0.533221,-0.202997 -0.0011,-0.0064 0.53731,-0.354257 0.537964,-0.360748 6.54e-4,-0.0065 -0.416958,-0.58002 -0.414104,-0.585949 0.0029,-0.0059 0.733971,-0.120458 0.738727,-0.125102 0.0048,-0.0046 -0.06853,-0.669073 -0.0627,-0.672168 0.0058,-0.0031 0.610068,0.387552 0.616452,0.386823 0.0064,-7.29e-4 0.464785,-0.500236 0.471291,-0.499416 0.0065,8.21e-4 0.144802,0.60417 0.150638,0.607037 0.0058,0.0029 0.665507,-0.157215 0.670254,-0.15282 0.0047,0.0044 -0.120405,0.643162 -0.117444,0.649056 0.003,0.0059 0.5321,0.196476 0.533222,0.202997 0.0011,0.0065 -0.398758,0.480271 -0.400195,0.486745 -0.0014,0.0065 0.276737,0.542717 0.273923,0.548508 -0.0028,0.0058 -0.603441,0.04168 -0.608252,0.04618 -0.0048,0.0045 -0.0694,0.684591 -0.07521,0.687438 -0.0058,0.0028 -0.610008,-0.403099 -0.616455,-0.402093 -0.0064,0.001 -0.326738,0.500077 -0.33338,0.499415 -0.0066,-6.61e-4 -0.282737,-0.588708 -0.288546,-0.591766 -0.0058,-0.0031 -0.658175,0.221092 -0.66282,0.216475 z"
       inkscape:randomized="-0.043"
       inkscape:rounded="0.01"
       inkscape:flatsided="false"
       sodipodi:arg2="2.6703538"
       sodipodi:arg1="2.3561945"
       sodipodi:r2="1.0973568"
       sodipodi:r1="1.6036172"
       sodipodi:cy="32.505951"
       sodipodi:cx="20.410715"
       sodipodi:sides="10"
       id="path340"
       style="fill:#ffffff;stroke-width:0.264583"
       sodipodi:type="star" />
    <path
       inkscape:transform-center-y="0.028775649"
       inkscape:transform-center-x="0.02781866"
       d="m 96.904882,25.595927 c -0.03664,0.02913 -3.551111,-3.566818 -3.596833,-3.552353 -0.04572,0.01447 -0.364113,4.370754 -0.411613,4.372612 -0.0475,0.0019 -0.606092,-4.510974 -0.652021,-4.523465 -0.04593,-0.01249 -3.065094,3.158038 -3.103323,3.130997 -0.03823,-0.02704 2.02465,-3.598378 1.997812,-3.636619 -0.02684,-0.03824 -4.133367,0.540141 -4.149851,0.495231 -0.01648,-0.04491 4.060226,-2.082925 4.061195,-2.129479 9.68e-4,-0.04655 -4.283575,-1.813451 -4.270461,-1.858057 0.01311,-0.04461 4.837303,1.014901 4.864438,0.97621 0.02714,-0.03869 -2.4948,-4.225068 -2.454901,-4.250291 0.0399,-0.02522 2.888647,3.423877 2.93319,3.407834 0.04454,-0.01604 0.663234,-4.330139 0.709885,-4.32913 0.04665,0.001 0.617552,4.721538 0.66123,4.737217 0.04368,0.01568 3.138952,-3.893338 3.177554,-3.865786 0.0386,0.02755 -2.09888,4.271574 -2.072052,4.309485 0.02683,0.03791 4.776637,-0.936702 4.792563,-0.89242 0.01592,0.04428 -4.675243,2.17933 -4.673758,2.225545 0.0015,0.04622 4.58817,2.018031 4.575544,2.06401 -0.01263,0.04598 -4.641413,-1.114253 -4.670557,-1.077247 -0.02914,0.03701 2.318598,4.366575 2.281959,4.395706 z"
       inkscape:randomized="-0.043"
       inkscape:rounded="0.01"
       inkscape:flatsided="false"
       sodipodi:arg2="1.2647061"
       sodipodi:arg1="0.95054684"
       sodipodi:r2="1.9373844"
       sodipodi:r1="6.5029478"
       sodipodi:cy="20.032738"
       sodipodi:cx="92.98214"
       sodipodi:sides="10"
       id="path351"
       style="fill:#ffffff;stroke-width:0.264583"
       sodipodi:type="star" />
    <path
       inkscape:transform-center-y="-0.12115571"
       inkscape:transform-center-x="0.00020404437"
       d="m 56.711209,76.694937 c -0.04146,0.01872 -2.193084,-4.057185 -2.237493,-4.053929 -0.04441,0.0033 -1.440435,4.418063 -1.485684,4.409909 -0.04525,-0.0082 -0.03186,-4.497269 -0.07263,-4.518554 -0.04077,-0.02128 -3.236451,2.982558 -3.268156,2.949645 -0.0317,-0.03291 2.599708,-3.552003 2.582493,-3.593457 -0.01722,-0.04145 -4.212638,-0.03619 -4.217647,-0.0804 -0.005,-0.04421 4.256915,-1.166526 4.264815,-1.21055 0.0079,-0.04402 -3.855992,-2.312025 -3.836023,-2.352523 0.01997,-0.0405 4.566693,1.499986 4.600795,1.471779 0.0341,-0.02821 -1.578086,-4.258468 -1.538594,-4.278963 0.03949,-0.02049 2.222269,3.707272 2.266491,3.704635 0.04422,-0.0026 1.17048,-4.359245 1.21445,-4.351193 0.04397,0.0081 -0.26174,4.72605 -0.223216,4.749555 0.03852,0.0235 3.747655,-2.633775 3.777227,-2.600351 0.02957,0.03342 -2.843074,3.201847 -2.824737,3.243301 0.01834,0.04145 4.376413,0.289339 4.379604,0.334203 0.0032,0.04486 -4.178808,0.664827 -4.184536,0.70925 -0.0057,0.04442 3.887466,2.621637 3.865038,2.660454 -0.02243,0.03882 -4.537657,-1.31166 -4.571796,-1.283004 -0.03414,0.02866 1.551054,4.071465 1.509596,4.090188 z"
       inkscape:randomized="-0.043"
       inkscape:rounded="0.01"
       inkscape:flatsided="false"
       sodipodi:arg2="1.4483284"
       sodipodi:arg1="1.1341692"
       sodipodi:r2="1.863997"
       sodipodi:r1="6.256619"
       sodipodi:cy="71.059525"
       sodipodi:cx="54.050591"
       sodipodi:sides="10"
       id="path353"
       style="fill:#ffffff;stroke-width:0.264583"
       sodipodi:type="star" />
    <path
       inkscape:transform-center-y="0.056466875"
       inkscape:transform-center-x="0.048825748"
       d="m 177.37659,12.632713 c -0.0434,0.02093 -2.25389,-3.932965 -2.30187,-3.9262904 -0.048,0.00667 -1.54645,4.7579794 -1.59442,4.7499354 -0.048,-0.008 0.13328,-4.8343518 0.0892,-4.8546552 -0.044,-0.020304 -4.01721,2.7603072 -4.04926,2.7235212 -0.032,-0.03679 3.14639,-3.3039005 3.12459,-3.3466853 -0.0218,-0.042785 -4.66796,0.1409553 -4.67615,0.092383 -0.008,-0.048572 4.79611,-1.7065348 4.80477,-1.7542734 0.009,-0.047739 -3.90953,-2.3337334 -3.88793,-2.3778834 0.0216,-0.04415 4.08515,1.5291457 4.1203,1.4946021 0.0351,-0.034544 -1.21634,-4.62975004 -1.1744,-4.65412292 0.0419,-0.0243729 2.71584,4.15587192 2.76465,4.14941262 0.0488,-0.00646 0.96577,-4.70733821 1.01353,-4.69970166 0.0478,0.007637 -0.13436,4.76940426 -0.0892,4.79027016 0.0451,0.020866 4.13481,-3.0192891 4.16678,-2.9827252 0.032,0.036564 -3.14752,3.9357954 -3.12399,3.9784025 0.0235,0.042607 4.66614,-0.1262932 4.67556,-0.078231 0.009,0.048062 -4.79493,1.1748542 -4.80417,1.2230227 -0.009,0.048168 4.4944,2.9179004 4.46941,2.9593674 -0.025,0.04147 -4.66867,-1.6434904 -4.70239,-1.6092202 -0.0337,0.03427 1.21841,4.1019462 1.175,4.1228722 z"
       inkscape:randomized="-0.043"
       inkscape:rounded="0.01"
       inkscape:flatsided="false"
       sodipodi:arg2="1.421308"
       sodipodi:arg1="1.1071487"
       sodipodi:r2="2.0143962"
       sodipodi:r1="6.7614436"
       sodipodi:cy="6.8035717"
       sodipodi:cx="174.625"
       sodipodi:sides="10"
       id="path355"
       style="fill:#ffffff;stroke-width:0.264583"
       sodipodi:type="star" />
    <path
       inkscape:transform-center-y="0.082189558"
       inkscape:transform-center-x="-0.036620128"
       d="m 143.73745,33.97401 c -0.0325,0.009 -1.12892,-2.917905 -1.16316,-2.918592 -0.0342,-6.86e-4 -1.70709,2.902155 -1.73763,2.887922 -0.0305,-0.01423 0.96289,-3.428678 0.9373,-3.451312 -0.0256,-0.02264 -3.0941,1.456247 -3.11344,1.427998 -0.0193,-0.02825 2.50153,-2.076712 2.49158,-2.109398 -0.01,-0.03269 -3.12113,-0.638259 -3.11865,-0.671536 0.002,-0.03328 3.14518,-0.257208 3.15673,-0.289391 0.0115,-0.03218 -2.39621,-2.147777 -2.37409,-2.172739 0.0221,-0.02496 2.75854,1.533877 2.78729,1.51739 0.0288,-0.01649 -0.41463,-3.242306 -0.38148,-3.250863 0.0332,-0.0086 1.1442,3.000727 1.17782,3.004802 0.0336,0.0041 1.61383,-2.716724 1.64531,-2.703585 0.0315,0.01314 -0.48894,3.013719 -0.46459,3.036872 0.0243,0.02315 2.77682,-1.210199 2.79344,-1.180203 0.0166,0.03 -2.58221,1.86444 -2.57324,1.896337 0.009,0.0319 3.202,0.861122 3.19991,0.894382 -0.002,0.03326 -3.2251,-0.0094 -3.238,0.02203 -0.0129,0.03141 2.48255,2.567717 2.46198,2.593782 -0.0206,0.02606 -2.84661,-1.944785 -2.87559,-1.928648 -0.029,0.01614 0.42106,3.385735 0.38851,3.394756 z"
       inkscape:randomized="-0.043"
       inkscape:rounded="0.01"
       inkscape:flatsided="false"
       sodipodi:arg2="1.6399769"
       sodipodi:arg1="1.3258177"
       sodipodi:r2="1.3928862"
       sodipodi:r1="4.6753073"
       sodipodi:cy="29.482143"
       sodipodi:cx="142.49702"
       sodipodi:sides="10"
       id="path357"
       style="fill:#ffffff;stroke-width:0.264583"
       sodipodi:type="star" />
    <path
       inkscape:transform-center-y="-0.021402927"
       inkscape:transform-center-x="-0.015421238"
       d="m 95.714636,59.689984 c -0.01113,0.01379 -1.510044,-0.948054 -1.524326,-0.938163 -0.01428,0.0099 0.148378,1.767595 0.131463,1.772771 -0.01691,0.0052 -0.538362,-1.493436 -0.556163,-1.494675 -0.0178,-0.0012 -0.952687,1.381564 -0.968811,1.375028 -0.01612,-0.0065 0.424344,-1.618088 0.411167,-1.629967 -0.01318,-0.01188 -1.576708,0.855228 -1.586269,0.840691 -0.0096,-0.01454 1.469813,-1.112345 1.464844,-1.129221 -0.005,-0.01688 -1.760202,-0.301449 -1.760357,-0.319055 -1.54e-4,-0.0176 1.818466,-0.128643 1.824925,-0.14479 0.0065,-0.01615 -1.379141,-1.216935 -1.368062,-1.230566 0.01108,-0.01363 1.520818,0.841079 1.535336,0.831159 0.01452,-0.0099 -0.159588,-1.65657 -0.142684,-1.660701 0.0169,-0.0041 0.538923,1.494292 0.556164,1.494675 0.01724,3.82e-4 0.755179,-1.497544 0.772102,-1.492164 0.01692,0.0054 -0.22772,1.75336 -0.214244,1.765083 0.01348,0.01172 1.379171,-0.782219 1.389346,-0.767667 0.01018,0.01455 -1.344618,1.096042 -1.339187,1.112887 0.0054,0.01685 1.88481,0.242842 1.885118,0.260588 3.08e-4,0.01775 -1.860444,0.01854 -1.8672,0.0345 -0.0068,0.01596 1.367968,1.305798 1.356838,1.31959 z"
       inkscape:randomized="-0.043"
       inkscape:rounded="0.01"
       inkscape:flatsided="false"
       sodipodi:arg2="0.98890021"
       sodipodi:arg1="0.67474094"
       sodipodi:r2="0.72104418"
       sodipodi:r1="2.4202285"
       sodipodi:cy="58.208332"
       sodipodi:cx="93.738091"
       sodipodi:sides="10"
       id="path359"
       style="fill:#ffffff;stroke-width:0.264583"
       sodipodi:type="star" />
    <path
       inkscape:transform-center-y="0.017359936"
       inkscape:transform-center-x="0.0018179621"
       d="m 134.49592,60.045931 c -0.007,0.0142 -1.41849,-0.514011 -1.43101,-0.504443 -0.0125,0.0096 0.42049,1.46733 0.40591,1.474459 -0.0146,0.0071 -0.71818,-1.385966 -0.73403,-1.385158 -0.0158,8.08e-4 -0.48146,1.539634 -0.49664,1.535977 -0.0152,-0.0037 0.0161,-1.577457 0.003,-1.585695 -0.0134,-0.0082 -1.27032,0.772414 -1.28137,0.761318 -0.011,-0.0111 1.17943,-1.048981 1.17285,-1.063278 -0.007,-0.0143 -1.66358,-0.146509 -1.66474,-0.162338 -0.001,-0.01583 1.56039,-0.29076 1.56338,-0.306061 0.003,-0.0153 -1.19852,-0.906586 -1.19058,-0.920181 0.008,-0.0136 1.39903,0.530371 1.41058,0.519013 0.0115,-0.01136 -0.41071,-1.37609 -0.39588,-1.382361 0.0148,-0.0063 0.71825,1.196252 0.73402,1.195618 0.0158,-6.34e-4 0.47134,-1.441937 0.48662,-1.438535 0.0153,0.0034 -0.11025,1.620042 -0.0967,1.627973 0.0136,0.0079 1.26141,-0.903536 1.27115,-0.890776 0.01,0.01276 -0.9795,1.136261 -0.9731,1.150762 0.006,0.0145 1.57719,0.04417 1.57941,0.05998 0.002,0.01581 -1.55023,0.377691 -1.55315,0.393547 -0.003,0.01586 1.19787,0.905979 1.19057,0.920181 z"
       inkscape:randomized="-0.043"
       inkscape:rounded="0.01"
       inkscape:flatsided="false"
       sodipodi:arg2="0.85457877"
       sodipodi:arg1="0.5404195"
       sodipodi:r2="0.65661281"
       sodipodi:r1="2.2039609"
       sodipodi:cy="58.964287"
       sodipodi:cx="132.66965"
       sodipodi:sides="10"
       id="path361"
       style="fill:#ffffff;stroke-width:0.264583"
       sodipodi:type="star" />
    <path
       sodipodi:type="star"
       style="fill:#ffffff;stroke-width:0.264583"
       id="path306-2"
       sodipodi:sides="7"
       sodipodi:cx="184.20107"
       sodipodi:cy="39.322857"
       sodipodi:r1="4.9714984"
       sodipodi:r2="2.0557683"
       sodipodi:arg1="-1.4181469"
       sodipodi:arg2="2.7716406"
       inkscape:flatsided="false"
       inkscape:rounded="0"
       inkscape:randomized="0"
       d="m 184.95702,34.409169 -2.67264,5.656994 6.22969,-3.215913 -6.08918,1.437526 6.39845,2.865479 -4.92044,-3.864428 1.74904,6.789106 -0.0465,-6.25639 -4.21742,5.600399 4.86244,-3.937162 -7.00809,0.194476 6.10988,1.346829 -4.52152,-5.35789 2.75645,5.61663 z"
       inkscape:transform-center-x="-1.0761905e-06" />
    <path
       sodipodi:type="star"
       style="fill:#ffffff;stroke-width:0.264583"
       id="path306-1"
       sodipodi:sides="7"
       sodipodi:cx="23.183216"
       sodipodi:cy="61.245472"
       sodipodi:r1="10.454303"
       sodipodi:r2="2.0557683"
       sodipodi:arg1="-1.3521273"
       sodipodi:arg2="2.8376602"
       inkscape:flatsided="false"
       inkscape:rounded="0"
       inkscape:randomized="0"
       d="m 25.451074,51.040117 -4.229404,10.820594 11.3544,-5.205091 -11.096872,3.439849 11.148858,5.631906 -9.608169,-6.531173 2.547998,12.227964 -0.884319,-11.584089 -7.971556,9.616116 8.505441,-7.91395 -12.488366,-0.236864 11.49043,1.715555 -7.601181,-9.911479 5.822892,10.053211 z"
       inkscape:transform-center-x="-1.0761905e-06" />
  </g>
</svg>
